<?xml version="1.0" encoding="iso-8859-1"?>
<!-- Generator: Adobe Illustrator 19.0.0, SVG Export Plug-In . SVG Version: 6.00 Build 0)  -->
<svg version="1.1" id="Layer_1" xmlns="http://www.w3.org/2000/svg" xmlns:xlink="http://www.w3.org/1999/xlink" x="0px" y="0px"
	 viewBox="0 0 511.999 511.999" style="enable-background:new 0 0 511.999 511.999;" xml:space="preserve">
<g>
	<g>
		<path d="M255.196,214.201c-30.606,0-55.505,24.9-55.505,55.505s24.9,55.505,55.505,55.505s55.505-24.9,55.505-55.505
			S285.801,214.201,255.196,214.201z M255.196,291.908c-12.242,0-22.202-9.96-22.202-22.202s9.96-22.202,22.202-22.202
			c12.242,0,22.202,9.96,22.202,22.202C277.398,281.948,267.438,291.908,255.196,291.908z"/>
	</g>
</g>
<g>
	<g>
		<path d="M511.106,220.855c-1.771-5.185-5.98-9.168-11.257-10.65l-30.109-8.457l19.383-24.539c3.397-4.298,4.46-9.992,2.845-15.227
			c-1.614-5.235-5.699-9.342-10.927-10.981c-35.853-11.252-78.66-20.752-124.317-5.907c-4.185,1.359-8.339,2.923-12.457,4.687
			c0.411-4.464,0.618-8.896,0.618-13.286c0-47.986-22.29-85.745-44.096-116.353c-3.127-4.39-8.182-6.99-13.561-6.99
			c-0.087,0-0.173,0-0.259,0.002c-5.476,0.084-10.56,2.856-13.598,7.413l-17.294,25.947l-17.301-25.949
			c-3.037-4.556-8.122-7.328-13.597-7.412c-5.503-0.125-10.643,2.527-13.82,6.988c-21.803,30.605-44.09,68.362-44.09,116.353
			c0,4.343,0.202,8.728,0.605,13.144c-4.122-1.736-8.31-3.283-12.576-4.644c-46.242-14.85-90.595-4.557-124.069,6.07
			c-5.211,1.655-9.277,5.761-10.881,10.989c-1.603,5.227-0.537,10.908,2.85,15.2l19.307,24.458l-30.35,8.512
			c-5.291,1.484-9.508,5.482-11.273,10.686c-1.764,5.204-0.848,10.942,2.449,15.338c22.623,30.164,51.881,63.005,97.352,77.89
			c0.048,0.016,0.095,0.031,0.143,0.047c3.677,1.167,7.404,2.197,11.18,3.089c-2.197,2.617-4.284,5.286-6.259,8.007
			c-28.4,39.088-32.451,84.695-32.808,120.062c-0.056,5.478,2.588,10.633,7.067,13.785c4.482,3.153,10.224,3.901,15.363,1.998
			l29.335-10.856l-1.261,31.26c-0.22,5.475,2.267,10.708,6.651,13.994c4.384,3.286,10.102,4.205,15.297,2.459
			c33.534-11.282,75.666-29.24,104.044-68.303c2.313-3.184,4.511-6.486,6.592-9.902c2.079,3.419,4.277,6.722,6.589,9.902
			c28.38,39.063,70.514,57.022,104.051,68.304c1.734,0.583,3.526,0.869,5.307,0.869c3.556,0,7.069-1.139,9.99-3.329
			c4.384-3.287,6.87-8.52,6.648-13.995l-1.262-31.257l29.331,10.855c5.138,1.902,10.884,1.154,15.363-1.998
			c4.479-3.153,7.122-8.308,7.067-13.785c-0.356-35.368-4.408-80.978-32.799-120.058c-1.984-2.731-4.079-5.41-6.282-8.033
			c3.935-0.926,7.794-2.004,11.574-3.232c45.886-14.904,76.003-49.435,97.112-77.853
			C511.983,231.767,512.876,226.041,511.106,220.855z M401.315,282.342c-11.866,3.857-24.919,5.816-38.794,5.826
			c-7.177,0.004-13.542,4.607-15.796,11.421c-2.255,6.814,0.11,14.305,5.866,18.59c10.694,7.958,19.701,16.931,26.776,26.675
			c17.156,23.614,23.295,50.63,25.414,76.355l-29.297-10.841c-5.223-1.933-11.063-1.128-15.567,2.146
			c-4.505,3.273-7.075,8.58-6.85,14.143l1.262,31.212c-23.82-9.972-47.621-24.164-64.77-47.767
			c-7.403-10.184-13.348-22.12-17.673-35.477c-2.224-6.868-8.619-11.522-15.838-11.523c-0.002,0-0.002,0-0.004,0
			c-7.217,0-13.613,4.649-15.84,11.515c-4.321,13.32-10.279,25.259-17.71,35.489c-17.144,23.601-40.947,37.791-64.765,47.764
			c1.261-31.298,3.588-38.686-5.593-45.356c-9.6-6.975-16.825-1.68-44.862,8.697c2.118-25.723,8.259-52.739,25.423-76.362
			c7.024-9.68,15.989-18.618,26.646-26.563c5.75-4.287,8.109-11.773,5.855-18.582c-2.252-6.808-8.613-11.409-15.785-11.42
			c-13.369-0.019-26.301-1.977-38.438-5.82c-27.837-9.13-48.389-26.925-65.653-46.953l30.227-8.478
			c5.361-1.503,9.616-5.587,11.338-10.881c1.723-5.296,0.685-11.101-2.764-15.472l-19.297-24.446
			c31.565-7.46,56.447-7.191,80.321,0.476c12.887,4.113,24.94,10.438,36.843,19.339c5.843,4.367,13.848,4.424,19.75,0.141
			c5.904-4.283,8.333-11.91,5.994-18.819c-4.75-14.03-7.159-27.783-7.159-40.88c0-29.347,10.583-54.264,24.335-76.695l17.317,25.972
			c3.088,4.633,8.288,7.414,13.855,7.414c5.567,0,10.766-2.783,13.854-7.416l17.311-25.97
			c13.754,22.433,24.339,47.353,24.339,76.694c0,13.185-2.442,27.033-7.261,41.159c-2.357,6.913,0.064,14.554,5.972,18.846
			c5.908,4.293,13.923,4.236,19.77-0.142c11.875-8.892,24.307-15.484,36.953-19.591c27.748-9.023,55.343-6.51,80.467-0.572
			l-19.359,24.51c-3.451,4.369-4.49,10.173-2.77,15.468s5.975,9.379,11.334,10.885l30.058,8.441
			C449.893,255.079,429.04,273.336,401.315,282.342z"/>
	</g>
</g>
<g>
</g>
<g>
</g>
<g>
</g>
<g>
</g>
<g>
</g>
<g>
</g>
<g>
</g>
<g>
</g>
<g>
</g>
<g>
</g>
<g>
</g>
<g>
</g>
<g>
</g>
<g>
</g>
<g>
</g>
</svg>
