<svg id="Capa_1" enable-background="new 0 0 496.998 496.998" height="512" viewBox="0 0 496.998 496.998" width="512" xmlns="http://www.w3.org/2000/svg"><g><path d="m332.1 150.177-83.6 110.034-3.352-78.926 46.752-41.291z" fill="#ffb2c1"/><path d="m485.71 210.527c-10.68-6.03-14.44-19.57-8.41-30.25 1.95-3.46 2.87-7.2 2.87-10.89 0-8.19-4.54-16.11-12.45-19.99-31.36-15.4-70.78-19.48-110.2-8.52-8.89 2.47-17.38 5.6-25.42 9.3-48.26 22.19-80.26 64.94-83.6 110.03 30.5 43.03 92.76 63.21 154.98 45.91 39.41-10.97 71.07-34.82 89.97-64.2 6.92-10.75 3.39-25.1-7.74-31.39z" fill="#ffc9d3"/><path d="m397.663 322.478c-37.32-52.707-98.341-76.375-149.163-62.267-30.187 43.251-28.13 108.669 9.191 161.377 23.639 33.385 56.786 55.113 90.828 62.974 12.455 2.876 24.771-5.296 26.924-17.896 2.066-12.089 13.541-20.214 25.63-18.148 12.6 2.154 24.399-6.749 25.823-19.452 3.891-34.721-5.594-73.203-29.233-106.588z" fill="#ff9db0"/><path d="m248.5 260.211c-50.822-14.108-111.843 9.559-149.163 62.267-23.639 33.385-33.124 71.868-29.232 106.588 1.424 12.703 13.223 21.605 25.823 19.452 12.089-2.066 23.564 6.059 25.63 18.148 2.154 12.6 14.469 20.772 26.924 17.896 34.042-7.861 67.189-29.589 90.828-62.974 37.32-52.708 39.377-118.126 9.19-161.377z" fill="#ffc9d3"/><path d="m139.476 140.877c-39.411-10.962-78.834-6.88-110.195 8.519-11.474 5.634-15.864 19.748-9.578 30.878 6.031 10.679 2.263 24.225-8.415 30.256-11.13 6.286-14.659 20.639-7.741 31.389 18.906 29.38 50.559 53.232 89.97 64.194 62.22 17.306 124.483-2.871 154.984-45.902-3.903-52.6-46.805-102.028-109.025-119.334z" fill="#ffb2c1"/><path d="m334.25 123.197c0 9.22-.74 18.24-2.15 26.98-48.26 22.19-80.26 64.94-83.6 110.03-49.63-17.85-85.75-72.43-85.75-137.01 0-40.91 14.49-77.8 37.73-103.88 8.51-9.55 23.28-9.99 32.32-.96 8.67 8.68 22.73 8.68 31.4 0 9.04-9.03 23.81-8.59 32.32.96 23.24 26.08 37.73 62.97 37.73 103.88z" fill="#ff9db0"/><path d="m187.305 277.558c-77.413 0-141.729-56.05-154.596-129.779-1.152.526-2.297 1.062-3.428 1.618-11.474 5.634-15.864 19.748-9.578 30.878 6.031 10.679 2.263 24.225-8.415 30.256-11.13 6.286-14.659 20.639-7.741 31.389 18.906 29.381 50.559 53.232 89.97 64.194 58.634 16.309 117.293-.679 149.387-38.7-17.284 6.548-36.02 10.144-55.599 10.144z" fill="#ff9db0"/><path d="m261.194 284.38c-14.909 78.098-83.55 137.13-165.992 137.13-8.78 0-17.403-.671-25.822-1.961.132 3.198.372 6.374.724 9.517 1.424 12.703 13.223 21.605 25.823 19.452 12.089-2.066 23.564 6.059 25.63 18.148 2.154 12.6 14.469 20.772 26.924 17.896 34.042-7.861 67.189-29.589 90.828-62.974 30.889-43.625 37.598-95.945 21.885-137.208z" fill="#ffb2c1"/><path d="m217.604 177.745c0-64.603 31.496-121.84 79.962-157.224-.349-.401-.693-.807-1.046-1.203-8.51-9.55-23.28-9.99-32.32-.96-8.67 8.68-22.73 8.68-31.4 0-9.04-9.03-23.81-8.59-32.32.96-23.24 26.08-37.73 62.97-37.73 103.88 0 57.502 28.648 107.051 69.96 129.828-9.726-23.158-15.106-48.591-15.106-75.281z" fill="#ff889e"/><circle cx="248.5" cy="260.211" fill="#ffdde3" r="52.088"/></g></svg>