<?xml version="1.0" encoding="iso-8859-1"?>
<!-- Generator: Adobe Illustrator 19.0.0, SVG Export Plug-In . SVG Version: 6.00 Build 0)  -->
<svg version="1.1" id="Layer_1" xmlns="http://www.w3.org/2000/svg" xmlns:xlink="http://www.w3.org/1999/xlink" x="0px" y="0px"
	 viewBox="0 0 512.002 512.002" style="enable-background:new 0 0 512.002 512.002;" xml:space="preserve">
<path style="fill:#E380A7;" d="M511.098,221.888c-1.78-5.231-6.009-9.238-11.241-10.685l-28.937-8.459l19.477-24.597
	c3.449-4.341,4.451-10.017,2.894-15.248c-1.671-5.342-5.788-9.46-11.019-11.019c-35.951-11.353-78.801-20.813-124.657-6.01
	c-4.118,1.447-8.347,3.005-12.466,4.787c0.445-4.563,0.669-8.904,0.669-13.356c0-48.081-22.371-85.923-44.187-116.642
	c-3.227-4.452-8.68-7.234-13.912-7.011c-5.454,0.11-10.572,2.893-13.579,7.457l-18.142,25.933l-16.584-25.933
	c-3.005-4.563-8.125-7.346-13.579-7.457c-5.454-0.223-10.685,2.56-13.912,7.011c-21.815,30.719-44.186,68.561-44.186,116.642
	c0,4.341,0.223,8.793,0.555,13.133c-4.118-1.669-8.347-3.228-12.577-4.563c-46.411-14.914-90.819-4.675-124.432,6.01
	c-5.231,1.669-9.239,5.788-10.907,11.019c-1.559,5.231-0.445,11.019,2.894,15.248l19.366,24.597l-30.496,8.459
	C6.909,212.763,2.68,216.77,0.9,221.889c-1.783,5.231-0.892,11.019,2.449,15.471c22.705,30.162,51.976,63.107,97.721,78.132
	c3.671,1.113,7.456,2.115,11.241,3.005c-2.227,2.671-4.342,5.342-6.234,8.125C77.583,365.8,73.465,411.544,73.132,446.938
	c0,5.454,2.56,10.685,7.122,13.801c4.452,3.228,10.24,3.896,15.36,2.003l29.382-10.796l-1.224,31.275
	c-0.223,5.455,2.227,8.57,6.678,11.799c4.341,3.339,10.128,4.228,15.359,2.449c33.613-11.241,75.794-27.046,104.288-66.223
	c2.337-3.228,3.785-6.455,5.899-9.906c2.114,3.45,5.008,6.678,7.345,9.906c28.381,39.178,70.676,54.982,104.289,66.223
	c1.78,0.668,3.56,0.89,5.342,0.89c3.563,0,7.012-1.113,10.016-3.339c3.563-2.672,6.01-5.342,6.568-9.349
	c0.111-0.89,0.111-1.781,0.111-2.449l-1.336-31.275l29.494,10.796c5.12,1.892,10.907,1.224,15.358-2.003
	c4.453-3.116,7.124-8.347,7.124-13.801c-0.445-35.393-4.453-81.138-32.946-120.315c-2.005-2.783-4.118-5.455-6.232-8.125
	c3.896-0.89,7.791-2.003,11.575-3.228c45.966-14.914,74.793-49.528,96.051-78.021C511.99,232.796,512.88,227.121,511.098,221.888z"
	/>
<path style="fill:#D56D95;" d="M508.761,237.248c-21.257,28.493-50.085,63.107-96.051,78.021c-3.785,1.224-7.681,2.337-11.575,3.228
	c2.114,2.671,4.228,5.342,6.232,8.125c28.492,39.178,32.5,84.922,32.946,120.315c0,5.454-2.671,10.685-7.124,13.801
	c-4.451,3.228-10.238,3.895-15.358,2.003l-29.494-10.796l1.336,31.275c0,0.669,0,1.558-0.111,2.449
	c-0.556,4.007-3.005,6.678-6.568,9.349c-3.004,2.226-6.453,3.339-10.016,3.339c-1.781,0-3.563-0.223-5.342-0.89
	c-33.613-11.241-75.908-27.046-104.289-66.223c-2.337-3.228-5.231-6.455-7.345-9.906v-374.3l18.142-25.933
	c3.005-4.563,8.125-7.346,13.579-7.457c5.232-0.223,10.686,2.56,13.912,7.011c21.816,30.719,44.187,68.561,44.187,116.642
	c0,4.452-0.223,8.793-0.669,13.356c4.118-1.781,8.347-3.339,12.466-4.787c45.855-14.803,88.706-5.342,124.657,6.01
	c5.231,1.558,9.347,5.676,11.019,11.019c1.557,5.231,0.555,10.907-2.894,15.248l-19.477,24.597l28.937,8.459
	c5.232,1.446,9.462,5.454,11.241,10.685C512.88,227.121,511.99,232.796,508.761,237.248z"/>
<path style="fill:#E4E9EE;" d="M256,326.51c-30.683,0-55.65-24.967-55.65-55.65s24.967-55.65,55.65-55.65s55.65,24.967,55.65,55.65
	S286.683,326.51,256,326.51z"/>
<path style="fill:#CED7E2;" d="M311.65,270.86c0-30.683-24.967-55.65-55.65-55.65v111.3
	C286.683,326.51,311.65,301.545,311.65,270.86z"/>
<path style="fill:#EFC437;" d="M256,248.6c-12.271,0-22.26,9.984-22.26,22.26s9.989,22.26,22.26,22.26
	c12.271,0,22.26-9.984,22.26-22.26S268.271,248.6,256,248.6z"/>
<path style="fill:#D7A03C;" d="M278.26,270.86c0-12.276-9.989-22.26-22.26-22.26v44.52C268.271,293.12,278.26,283.138,278.26,270.86
	z"/>
<g>
</g>
<g>
</g>
<g>
</g>
<g>
</g>
<g>
</g>
<g>
</g>
<g>
</g>
<g>
</g>
<g>
</g>
<g>
</g>
<g>
</g>
<g>
</g>
<g>
</g>
<g>
</g>
<g>
</g>
</svg>
