<svg id="Capa_1" enable-background="new 0 0 512 512" height="512" viewBox="0 0 512 512" width="512" xmlns="http://www.w3.org/2000/svg"><g><path d="m496.911 211.503c-7.061-3.988-9.561-12.977-5.574-20.038 8.59-15.208 2.205-33.931-12.803-41.3-34.493-16.938-75.517-20.139-115.516-9.013-4.902 1.363-9.712 2.938-14.425 4.696.437-5.056.664-10.12.664-15.152 0-41.517-14.077-80.183-39.639-108.876-11.141-12.505-30.89-13.599-43.22-1.267-5.734 5.734-15.065 5.733-20.799 0-12.371-12.375-32.119-11.192-43.219 1.267-6.262 7.03-11.944 14.845-16.89 23.231-2.105 3.568-.918 8.166 2.65 10.27 3.569 2.105 8.167.918 10.27-2.65 4.451-7.548 9.556-14.57 15.17-20.874 5.631-6.32 15.404-6.646 21.413-.638 11.584 11.584 30.43 11.583 42.013 0 6.009-6.01 15.782-5.682 21.413.638 23.111 25.942 35.839 61.065 35.839 98.898 0 7.284-.504 14.644-1.5 21.932-25.819 12.638-48.963 32.132-64.558 56.755-3.935-.812-7.874-1.25-12.144-1.254-.019 0-.037-.001-.056-.001-17.009 0-32.998 7.288-44.08 19.498-22.836-26.755-34.178-62.056-34.178-96.929 0-17.354 2.715-34.271 8.069-50.279 1.314-3.928-.806-8.178-4.734-9.492-3.928-1.313-8.178.806-9.492 4.734-5.868 17.545-8.844 36.062-8.844 55.037 0 5.083.228 10.135.659 15.143-42.394-15.777-89.81-15.377-129.935 4.326-15.006 7.368-21.394 26.089-12.803 41.3 3.988 7.061 1.488 16.05-5.573 20.038-15.209 8.589-19.408 27.92-10.36 41.98 21.203 32.951 56.087 57.828 98.656 68.504-24.891 33.232-37.831 74.483-33.242 115.428 1.857 16.578 17.284 28.954 34.541 26.01 7.995-1.368 15.608 4.025 16.975 12.019 2.945 17.227 19.728 27.703 36.006 23.941 37.442-8.646 71.275-32.067 95.266-65.95 1.052-1.485 2.069-2.988 3.07-4.499 1.007 1.52 2.026 3.026 3.069 4.499 23.991 33.883 57.824 57.304 95.266 65.95 16.269 3.759 33.06-6.704 36.007-23.941 1.366-7.994 8.977-13.386 16.974-12.019 17.212 2.944 32.679-9.392 34.541-26.01 2.009-17.924.651-36.343-4.035-54.747-1.022-4.014-5.104-6.441-9.119-5.418-4.014 1.022-6.44 5.105-5.418 9.119 4.238 16.644 5.471 33.256 3.665 49.375-.947 8.446-8.765 14.321-17.107 12.895-16.143-2.757-31.528 8.132-34.288 24.278-1.426 8.345-9.562 13.762-17.845 11.853-33.853-7.817-64.536-29.127-86.399-60.003-2.333-3.295-4.574-6.732-6.691-10.257 16.277-30.446 22.383-63.496 18.744-93.852 17.154-8.819 29.418-25.784 31.796-45.714 38.69 9.616 76.377 39.19 97.233 81.862 1.819 3.722 6.312 5.264 10.032 3.445 3.722-1.819 5.264-6.31 3.445-10.032-4.815-9.853-10.588-19.313-17.244-28.223 40.446-10.092 76.44-34.004 98.646-68.513 9.045-14.058 4.85-33.39-10.362-41.98zm-196.375 58.313c-.008.164-.019.327-.028.491-1.355 23.579-20.982 42-44.509 42-24.628 0-44.59-20.065-44.59-44.59 0-24.74 20.144-44.59 44.59-44.59 25.215 0 45.731 21.11 44.537 46.689zm-283.193-24.451c-4.599-7.146-2.248-16.639 5.122-20.801 6.909-3.903 11.886-10.262 14.012-17.907s1.148-15.66-2.754-22.569c-4.153-7.356-1.289-16.706 6.353-20.459 18.918-9.289 40.064-13.992 61.913-13.992 21.966 0 44.015 4.793 63.719 13.276 5.287 28.483 17.947 55.899 37.37 77.415-4.206 8.113-6.669 17.65-6.669 27.39 0 11.049 3.129 22.173 9.169 31.744-27.431 12.759-58.45 15.521-87.418 10.362-.017-.003-.034-.003-.052-.006-39.974-7.098-78.079-29.196-100.765-64.453zm136.946 239.404c-8.265 1.909-16.416-3.493-17.845-11.853-2.755-16.124-18.118-27.042-34.288-24.277-8.327 1.42-16.158-4.434-17.107-12.895-3.87-34.527 6.039-70.547 27.901-101.423 2.14-3.022 4.447-6.043 6.886-9.017 32.135 4.911 66.066.835 95.604-13.948 10.724 9.967 25.258 15.952 40.552 15.952h.007.008c3.962 0 8.631-.465 12.827-1.394 3.178 34.677-7.796 70.11-28.148 98.854-21.861 30.874-52.544 52.184-86.397 60.001zm340.369-239.404c-21.85 33.957-58.083 55.816-96.71 63.674-21.741-24.013-50.558-42.318-82.938-49.551-.001-.007-.002-.013-.003-.02-2.773-19.931-15.432-36.516-32.194-44.976 19.59-29.082 50.462-49.497 84.227-58.889 36.449-10.138 73.698-7.287 104.884 8.026 7.598 3.732 10.531 13.061 6.353 20.459-8.055 14.263-3.005 32.421 11.259 40.476 7.369 4.163 9.72 13.656 5.122 20.801z"/></g></svg>